Fly_normalized_Motion_pl02
version=1
nRows=20
nColumns=43
inDegrees=yes
endheader
time		pelvis_tilt		pelvis_list		pelvis_rotation		pelvis_tx		pelvis_ty		pelvis_tz		hip_flexion_r		hip_adduction_r		hip_rotation_r		knee_angle_r		ankle_angle_r		subtalar_angle_r		mtp_angle_r		hip_flexion_l		hip_adduction_l		hip_rotation_l		knee_angle_l		ankle_angle_l		subtalar_angle_l		mtp_angle_l		lumbar_extension		lumbar_bending		lumbar_rotation		neck_flexion		neck_lateral_bending		neck_rotation		arm_flex_r		arm_add_r		arm_rot_r		elbow_flex_r		pro_sup_r		wrist_flex_r		wrist_dev_r		hand_finger_flex_r		arm_flex_l		arm_add_l		arm_rot_l		elbow_flex_l		pro_sup_l		wrist_flex_l		wrist_dev_l		hand_finger_flex_l		
0.789672		-3.733951		-1.745473		90.418796		0.013332		1.712629		1.056462		46.884407		-5.524483		-5.780440		-53.966885		-20.182238		-0.795766		16.695552		41.961495		-0.118352		-12.676970		-57.687599		-19.233425		-17.511134		10.116813		-46.921174		-4.422210		-0.813562		-6.962756		0.954650		-2.976431		42.959468		-46.369447		29.765329		95.721482		88.078677		-34.831476		-1.415912		38.356804		49.785700		-47.131643		21.333982		92.166645		103.327842		-15.647763		17.549374		78.859414		
0.794015		-3.661171		-1.352096		90.496341		0.013226		1.703815		1.046205		46.072217		-5.468256		-6.089690		-52.654498		-20.806324		-0.815738		16.596852		41.152025		-0.194179		-12.810926		-56.416562		-19.718328		-17.417986		10.274247		-46.943329		-4.315099		-0.965285		-7.601451		0.810729		-2.888219		38.757974		-46.841655		28.114580		96.056627		88.139111		-34.507907		-1.406552		38.738723		45.983430		-48.315624		19.765599		92.564046		103.328976		-15.656230		17.379413		79.440518		
0.798359		-3.590397		-0.976479		90.607928		0.013195		1.694896		1.035862		45.233268		-5.404343		-6.383549		-51.324546		-21.396414		-0.849174		16.504337		40.288523		-0.264147		-12.973676		-55.037548		-20.176299		-17.284864		10.375557		-46.936743		-4.209265		-1.136675		-8.217849		0.722090		-2.773605		34.428034		-47.126041		26.293675		96.221932		88.149543		-34.264936		-1.478814		39.079798		42.016600		-49.345299		17.970578		92.879816		103.272095		-15.840710		17.225726		79.898726		
0.802702		-3.514707		-0.509775		90.713380		0.012911		1.685691		1.025469		44.328719		-5.365882		-6.697137		-50.123585		-21.911141		-0.933460		16.442029		39.389731		-0.335018		-13.139227		-53.829360		-20.555070		-17.151618		10.469464		-47.073554		-4.072263		-1.294667		-8.569322		0.610021		-2.663990		30.037383		-47.507017		24.220979		96.423473		88.512274		-33.250640		-1.704452		39.763883		37.772659		-50.366477		15.902732		93.393300		103.522037		-16.115172		16.864525		80.276321		
0.807045		-3.488695		-0.068579		90.817679		0.012754		1.676299		1.015036		43.411219		-5.366802		-7.007872		-48.886288		-22.430097		-0.955515		16.364501		38.491130		-0.368212		-13.314177		-52.587840		-20.960065		-17.000554		10.471038		-47.120199		-4.008924		-1.480434		-9.175122		0.571329		-2.534469		25.635912		-47.648226		22.191452		96.382647		88.836361		-32.683260		-1.913899		40.174231		33.547559		-51.256773		13.911942		93.687169		103.637395		-16.426605		16.614723		80.449750		
0.811389		-3.464426		0.382777		90.928836		0.012559		1.666701		1.004612		42.479797		-5.365255		-7.307882		-47.693053		-22.902230		-0.944029		16.279049		37.562582		-0.400927		-13.515362		-51.329962		-21.375185		-16.873589		10.414347		-47.169385		-3.942072		-1.663996		-9.790045		0.547781		-2.403881		21.248109		-47.693274		20.102475		96.209074		89.265363		-32.026864		-2.197683		40.598836		29.258471		-52.021087		11.851356		93.927639		103.871762		-16.654628		16.376767		80.579191		
0.815732		-3.430763		0.826563		91.056233		0.012345		1.656887		0.994110		41.555111		-5.358313		-7.587879		-46.553871		-23.343518		-0.894762		16.185227		36.619694		-0.450179		-13.748582		-50.055861		-21.820347		-16.749575		10.337544		-47.170269		-3.865298		-1.822715		-10.500704		0.550208		-2.267013		16.879803		-47.579159		17.997345		95.832748		89.714011		-31.489158		-2.519754		40.965174		24.962126		-52.598829		9.781465		94.064791		104.140880		-16.779563		16.209587		80.756053		
0.820076		-3.395457		1.302658		91.162176		0.012170		1.646811		0.983560		40.604267		-5.338288		-7.871663		-45.451860		-23.720298		-0.835752		16.099883		35.657828		-0.507053		-13.962207		-48.836812		-22.238647		-16.624144		10.294724		-47.201206		-3.798249		-1.969834		-11.126477		0.550438		-2.094531		12.555208		-47.382671		15.824632		95.402707		90.400304		-30.758925		-2.938627		41.365435		20.552238		-53.035894		7.525558		94.200270		104.545352		-16.763902		16.008757		81.013449		
0.824419		-3.306785		1.874548		91.290492		0.012238		1.636529		0.972945		39.559585		-5.242931		-8.150381		-44.458371		-24.089552		-0.757369		16.038404		34.618675		-0.644288		-14.148625		-47.712184		-22.625359		-16.463094		10.392559		-47.336239		-3.681085		-2.204430		-11.735774		0.460660		-1.875771		8.424719		-46.996811		13.702528		94.869446		91.442242		-29.748436		-3.433290		41.750092		15.867456		-53.525162		5.017150		94.365783		105.082975		-16.543219		15.699746		81.358871		
0.828763		-3.234212		2.389958		91.396668		0.012233		1.625923		0.962303		38.551360		-5.162174		-8.438715		-43.435026		-24.403814		-0.743532		15.996103		33.629075		-0.745338		-14.286000		-46.568849		-22.956079		-16.288708		10.602847		-47.366673		-3.593419		-2.390956		-12.433312		0.433601		-1.616551		4.403127		-46.617051		11.779969		94.259285		92.163212		-29.205597		-3.800231		41.954014		11.244479		-53.742935		2.534493		94.387118		105.318519		-16.447208		15.467156		81.657460		
0.833106		-3.151919		2.894913		91.511830		0.012118		1.615096		0.951601		37.543524		-5.072615		-8.719522		-42.446443		-24.678659		-0.754696		15.953367		32.637065		-0.839143		-14.426503		-45.400346		-23.250534		-16.130190		10.843032		-47.366308		-3.478211		-2.554973		-13.147500		0.402697		-1.369298		0.474749		-46.184518		9.933080		93.560796		92.679483		-28.870004		-4.080437		42.202002		6.653875		-53.759704		0.076413		94.329455		105.432485		-16.476403		15.254272		81.954751		
0.837449		-3.081757		3.383501		91.627824		0.012124		1.603943		0.940816		36.578173		-4.977775		-8.955229		-41.533394		-24.980072		-0.729178		15.897177		31.707443		-0.941121		-14.537116		-44.331386		-23.597482		-15.985025		11.045386		-47.236648		-3.384076		-2.728259		-14.312203		0.329502		-1.169694		-3.233640		-45.676663		8.329541		92.723567		92.997727		-28.694838		-4.171305		42.413677		2.277833		-53.787807		-2.006745		94.041966		105.508400		-16.492698		15.121145		82.234224		
0.841793		-2.992901		4.044830		91.759211		0.011983		1.592943		0.930051		35.366131		-4.881846		-9.244311		-40.575305		-25.162095		-0.685882		15.861319		30.523023		-1.046544		-14.693593		-43.139860		-23.887492		-15.861700		11.656072		-47.463377		-3.207116		-3.233950		-14.625886		0.107667		-0.635791		-6.446767		-45.122562		6.887092		91.926078		93.736727		-27.624808		-4.324939		42.837010		-3.183492		-53.422375		-5.577904		94.141520		105.841929		-16.398712		14.415393		82.573331		
0.846136		-2.966102		4.446757		91.843666		0.011763		1.581108		0.919367		34.522686		-4.816714		-9.405491		-39.738170		-25.386032		-0.649352		15.794190		29.688392		-1.104163		-14.877042		-42.073185		-24.233810		-15.787735		11.952318		-47.321408		-3.140188		-3.430475		-15.272274		0.014339		-0.419859		-10.098551		-44.578985		5.171787		91.167834		93.634040		-27.324762		-4.469032		43.055412		-7.690846		-52.996782		-7.978363		93.957797		105.864200		-16.427146		14.091286		82.785465		
0.850480		-2.956663		4.970596		91.913423		0.011767		1.569307		0.908553		33.529110		-4.744984		-9.542381		-38.917303		-25.657183		-0.591760		15.710574		28.710096		-1.171520		-15.044826		-41.021322		-24.622946		-15.638723		12.405047		-47.237728		-3.121673		-3.792873		-16.200500		-0.131397		-0.044548		-13.288118		-43.962374		3.807004		90.186847		93.602970		-26.569485		-4.649783		43.333743		-12.362009		-52.548001		-10.494217		93.693819		105.995174		-16.341567		13.485713		82.943667		
0.854823		-2.939113		5.473744		91.993751		0.011690		1.557411		0.897656		32.512125		-4.669602		-9.694783		-38.041559		-25.939672		-0.606791		15.614343		27.663529		-1.240630		-15.304245		-39.816685		-24.966855		-15.409743		12.911061		-47.096739		-3.102086		-4.151199		-17.212058		-0.208739		0.363465		-16.295798		-43.303056		2.541078		88.992709		93.394390		-25.717135		-4.974752		43.575211		-16.828625		-51.861325		-12.876489		93.327640		106.030997		-16.267364		12.748868		82.993987		
0.859167		-2.900336		5.758266		92.068755		0.011538		1.544736		0.886937		31.787577		-4.595044		-9.865540		-37.242586		-26.272762		-0.656153		15.516432		26.920530		-1.310485		-15.475402		-38.707004		-25.258198		-15.210420		13.119218		-46.733263		-3.074710		-4.262262		-18.095392		-0.208322		0.556144		-19.696264		-42.609654		0.960767		87.996904		93.016874		-25.569572		-5.241640		43.685850		-20.668185		-51.171551		-14.586859		92.916414		105.921753		-16.302648		12.473155		83.095519		
0.863510		-2.855477		6.202996		92.118622		0.011579		1.532217		0.876071		30.843729		-4.496827		-10.054653		-36.409477		-26.657098		-0.737389		15.386182		25.975961		-1.406886		-15.642382		-37.572330		-25.501008		-14.958797		13.374050		-46.504843		-3.064562		-4.474978		-19.089168		-0.218461		0.848828		-22.748612		-41.841258		-0.455834		86.847121		92.668123		-25.002767		-5.721782		43.906057		-24.584550		-50.364328		-16.444991		92.398629		105.842092		-16.376401		11.951891		83.149605		
0.867854		-2.801961		6.632599		92.164608		0.011454		1.519481		0.865096		29.892452		-4.373112		-10.194708		-35.547866		-27.044377		-0.777658		15.240750		25.042946		-1.460306		-15.716629		-36.435276		-25.727992		-14.726849		13.566848		-46.198343		-3.043851		-4.652995		-20.286944		-0.314268		1.140512		-25.673104		-41.151928		-1.704681		85.599891		92.389876		-24.477409		-6.146419		44.063681		-28.311680		-49.504499		-18.003719		91.930244		105.796239		-16.441726		11.467379		83.208324		
0.872197		-2.745288		7.149198		92.215723		0.011458		1.506778		0.854049		28.795477		-4.260600		-10.417356		-34.625349		-27.442456		-0.827071		15.039778		23.982314		-1.549840		-15.831088		-35.242584		-25.910081		-14.481737		13.820174		-46.013911		-3.037389		-4.937427		-21.323606		-0.363327		1.529574		-28.350655		-40.460120		-2.869219		84.282070		92.175649		-23.608782		-6.741181		44.172472		-32.097860		-48.455813		-19.753130		91.437391		105.807475		-16.544256		10.743245		83.209562		
